<mxfile host="app.diagrams.net" modified="2022-08-20T13:47:27.990Z" agent="5.0 (Macintosh; Intel Mac OS X 10_15_7) AppleWebKit/605.1.15 (KHTML, like Gecko) Version/15.1 Safari/605.1.15" etag="Tqgz-upgQijkvh4xh5Sh" version="20.2.5" type="github">
  <diagram id="AtjnaGJ8tk0dv6zpUowz" name="Sayfa -1">
    <mxGraphModel dx="830" dy="543" grid="1" gridSize="10" guides="1" tooltips="1" connect="1" arrows="1" fold="1" page="1" pageScale="1" pageWidth="827" pageHeight="1169" math="0" shadow="0">
      <root>
        <mxCell id="0" />
        <mxCell id="1" parent="0" />
        <mxCell id="u10rHj0Q65dX0sut4S60-3" style="edgeStyle=orthogonalEdgeStyle;rounded=0;orthogonalLoop=1;jettySize=auto;html=1;" edge="1" parent="1" source="u10rHj0Q65dX0sut4S60-1" target="u10rHj0Q65dX0sut4S60-4">
          <mxGeometry relative="1" as="geometry">
            <mxPoint x="600" y="115" as="targetPoint" />
          </mxGeometry>
        </mxCell>
        <mxCell id="u10rHj0Q65dX0sut4S60-1" value="" style="whiteSpace=wrap;html=1;aspect=fixed;" vertex="1" parent="1">
          <mxGeometry x="90" y="30" width="170" height="170" as="geometry" />
        </mxCell>
        <mxCell id="u10rHj0Q65dX0sut4S60-4" value="" style="swimlane;startSize=0;" vertex="1" parent="1">
          <mxGeometry x="500" y="15" width="200" height="200" as="geometry" />
        </mxCell>
      </root>
    </mxGraphModel>
  </diagram>
</mxfile>
